<?xml version="1.0" encoding="UTF-8"?>
<svg width="68px" height="68px" viewBox="0 0 68 68" version="1.1" xmlns="http://www.w3.org/2000/svg" xmlns:xlink="http://www.w3.org/1999/xlink">
    <!-- Generator: Sketch 54.1 (76490) - https://sketchapp.com -->
    <title>light_icon_active</title>
    <desc>Created with Sketch.</desc>
    <g id="Page-1" stroke="none" stroke-width="1" fill="none" fill-rule="evenodd">
        <g id="Artboard-Copy" transform="translate(-558.000000, -52.000000)">
            <g id="Group" transform="translate(531.000000, 38.000000)">
                <g id="light_icon_active" transform="translate(29.000000, 16.000000)">
                    <circle id="Oval" stroke="#FFA500" stroke-width="4" cx="32" cy="32" r="32"></circle>
                    <g id="lightbulb-regular" transform="translate(18.149254, 11.462687)" fill="#FFA500" fill-rule="nonzero">
                        <path d="M14.3283582,6.56729245 C10.0184532,6.56729245 6.51289009,10.1021376 6.51289009,14.4480434 C6.51289009,15.1737292 7.09579376,15.7615019 7.81546811,15.7615019 C8.53514247,15.7615019 9.11804613,15.1737292 9.11804613,14.4480434 C9.11804613,11.5502256 11.4561737,9.19420943 14.3283582,9.19420943 C15.0480326,9.19420943 15.6309362,8.60643675 15.6309362,7.88075094 C15.6309362,7.15506512 15.0480326,6.56729245 14.3283582,6.56729245 Z M7.82035278,37.6937959 C7.82035278,37.952383 7.89606513,38.2044029 8.0385346,38.4194817 L10.0339213,41.4437199 C10.2757123,41.8098464 10.682768,42.0298507 11.1183175,42.0298507 L17.5375848,42.0298507 C17.9739484,42.0298507 18.3810041,41.8098464 18.621981,41.4437199 L20.6173677,38.4194817 C20.7590231,38.2044029 20.8347354,37.9515621 20.8355495,37.6937959 L20.8396201,34.1490998 L7.81709634,34.1490998 L7.82035278,37.6937959 Z M14.3283582,0 C6.00162822,0 0,6.81110318 0,14.4480434 C0,18.090428 1.33921303,21.4134779 3.54626866,23.9525574 C4.9009498,25.5114684 7.02578019,28.7795173 7.81383989,31.5180783 L7.81383989,31.5230037 L11.7215739,31.5230037 L11.7215739,31.5131528 C11.7207598,31.121578 11.6629579,30.7324659 11.54654,30.3581302 C11.0914518,28.8960868 9.68873813,25.0410861 6.48521031,21.3551932 C4.81302578,19.4317974 3.91913161,16.9920483 3.91180461,14.4480434 C3.89552239,8.40285069 8.76960651,3.94037547 14.3283582,3.94037547 C20.0743555,3.94037547 24.7489824,8.65404962 24.7489824,14.4480434 C24.7489824,16.9904065 23.8339213,19.4432902 22.1723202,21.3551932 C18.9883311,25.0172797 17.5791045,28.8640712 17.1166893,30.3408911 C16.9973475,30.7205897 16.9363963,31.1164829 16.9359566,31.5147946 L16.9359566,31.5230037 L20.8436906,31.5230037 L20.8436906,31.5188992 C21.6317503,28.7795173 23.7565807,25.5114684 25.1112619,23.9533783 C27.3175034,21.4134779 28.6567164,18.090428 28.6567164,14.4480434 C28.6567164,6.46878306 22.2415197,0 14.3283582,0 Z" id="Shape"></path>
                    </g>
                </g>
            </g>
        </g>
    </g>
</svg>